<svg width="307" height="300" viewBox="0 0 307 300" fill="none" xmlns="http://www.w3.org/2000/svg">
<ellipse cx="153.5" cy="150" rx="153.5" ry="150" fill="#76C5FF"/>
<path d="M226.347 70.8145C228.197 71.3018 229.977 71.5138 230.272 74.9474C230.423 76.6962 232.241 76.8751 233.584 76.9222C235.992 77.0075 236.621 77.5125 236.478 80.298C236.363 82.5476 236.923 83.2132 238.544 83.3984C240.678 83.6421 242.678 84.4316 244.924 83.3111C246.946 82.3032 248.102 83.6336 249.062 86.7925C249.266 87.4616 249.557 88.3539 250.16 87.8715C252.907 85.6726 256.187 87.3855 259.129 85.4451C261.084 84.1562 263.87 84.7401 265.831 87.1855C266.779 88.368 267.905 88.9364 269.082 87.8968C270.33 86.7946 271.363 87.8088 272.005 88.666C274.046 91.3881 276.349 90.5789 278.69 89.9999C279.003 89.9225 279.306 89.7759 279.614 89.6619C280.886 89.1893 279.694 92.9749 281.119 91.3614C281.874 90.5063 282.402 90.3274 283.256 90.1929C287.147 89.5795 290.016 92.4425 292.999 94.9801L291.572 99.3293C291.469 99.2952 291.365 99.264 291.261 99.2356C290.415 99.0067 289.642 97.0853 289.387 97.6107C288.86 98.6954 287.798 99.6229 287.936 101.14C288.113 103.087 287.371 103.547 286.042 103.629C284.859 103.702 283.65 103.974 282.733 105.188C281.987 106.177 281.103 106.197 280.044 106.144C277.309 106.008 275.837 107.692 275.495 111.289C275.144 114.978 272.489 116.302 271.084 118.901C270.63 119.74 270.223 118.652 269.98 118.092C268.865 115.53 269.556 113.148 270.55 110.9C271.03 109.812 271.804 108.947 272.414 107.949C272.784 107.344 273.747 106.956 273.308 106.015C272.92 105.182 272.028 104.956 271.255 104.982C270.289 105.015 269.636 105.874 269.191 106.85C268.415 108.55 267.501 108.3 266.157 107.987C262.653 107.172 259.025 106.696 256.584 111.258C255.938 112.466 253.939 112.642 254.548 114.604C255.122 116.45 256.889 115.228 258.086 115.707C258.97 116.059 260.162 115.664 260.202 117.208C260.244 118.873 261.551 120.737 260.094 122.22C259.641 122.681 259.233 122.961 259.172 123.745C259.141 124.14 259.151 124.738 258.779 124.737C258.426 124.735 258.465 124.145 258.429 123.765C258.402 123.485 258.42 123.198 258.395 122.917C258.326 122.129 258.594 121.274 258.122 120.565C257.957 121.363 257.901 122.236 257.609 122.947C256.221 126.34 254.742 129.544 251.497 130.566C248.524 131.501 248.229 132.29 248.944 136.185C249.204 137.605 249.21 138.814 248.037 139.317C246.902 139.802 246.549 138.435 246.157 137.488C245.855 136.759 245.686 135.901 245.588 135.075C245.444 133.865 244.926 133.755 244.199 134.102C243.634 134.372 243.033 135.286 242.517 134.203C242.161 133.455 241.934 132.961 241.42 133.898C241.112 134.46 240.627 135.151 240.687 135.698C240.818 136.887 241.498 135.925 241.94 135.98C243.203 136.141 244.394 136.336 242.734 138.268C241.981 139.144 242.206 140.291 242.378 141.434C243.26 147.276 241.33 151.591 237.057 153.572C235.989 154.067 234.655 153.982 234.194 155.936C233.901 157.18 233.462 157.074 233.035 155.828C232.52 154.322 231.748 155.286 231.169 155.812C230.383 156.526 230.37 157.42 231.1 158.277C231.423 158.658 231.769 159.008 232.072 159.415C234.135 162.186 233.409 166.066 230.601 167.514C229.827 167.913 229.708 167.227 229.398 166.657C228.555 165.105 227.1 163.274 226.018 164.544C224.621 166.184 226.098 168.131 227.209 169.511C228.027 170.526 228.989 171.748 228.782 173.067C228.307 176.082 230.366 177.916 230.497 180.588C230.556 181.792 231.45 181.973 232.194 182.24C234.377 183.026 236.41 184.648 238.822 184.16C239.237 184.076 239.847 184.293 239.877 184.872C239.92 185.693 239.263 185.456 238.879 185.501C236.127 185.822 233.31 185.22 230.835 184.194C228.927 183.403 227.313 180.555 226.073 178.179C225.043 176.2 223.914 174.311 222.693 172.524C222.336 172.002 221.668 171.673 222.099 170.883C222.586 169.993 223.297 170.343 223.802 170.92C224.535 171.757 225.174 172.732 225.862 173.637C226.09 173.937 226.416 174.265 226.692 173.963C227.016 173.61 226.669 173.225 226.5 172.918C224.709 169.667 224.037 166.06 224.283 162.086C224.375 160.604 224.188 159.12 222.494 159.595C221.035 160.004 221.074 158.198 220.568 157.269C218.442 153.367 217.653 153.267 214.923 156.43C214.296 157.156 213.609 157.795 212.923 158.426C210.565 160.597 209.943 163.814 211.155 167.385C211.403 168.117 212.011 168.927 211.34 169.668C210.721 170.351 210.199 169.487 209.609 169.225C206.889 168.019 205.864 165.078 205.49 161.913C204.932 157.199 202.197 154.474 200.242 151.021C199.741 150.134 198.992 149.947 198.206 149.929C197.224 149.907 196.233 149.794 195.261 149.917C194.656 149.994 194.08 149.88 193.512 149.719C192.544 149.444 191.969 151.058 192.759 151.835C193.136 152.206 193.545 152.543 193.893 152.944C194.521 153.667 193.875 154.105 193.692 154.718C192.539 158.595 189.664 159.593 187.193 161.066C185.648 161.986 184.185 163.378 182.378 163.516C182.043 163.541 181.709 163.77 181.709 164.268C181.709 164.939 182.118 165.263 182.553 165.313C183.66 165.443 184.635 164.66 185.694 164.441C187.168 164.137 187.879 165.434 187.222 167.173C185.925 170.605 184.257 173.771 181.869 176.184C178.211 179.879 177.863 181.389 179.234 186.924C180.309 191.262 180.183 191.916 177.268 194.785C176.155 195.881 175.202 196.884 175.755 198.957C175.974 199.777 176.028 200.897 175.504 201.366C173.413 203.24 172.728 206.357 171.415 208.893C169.304 212.969 166.068 212.773 162.956 213.08C161.98 213.176 161.245 211.921 161.146 210.94C160.79 207.41 159.44 204.196 158.505 201.082C157.066 196.291 155.986 192.16 157.428 187.108C157.841 185.658 157.296 183.262 156.561 181.854C155.329 179.493 154.743 177.116 154.8 174.339C154.818 173.455 154.447 172.353 153.76 172.483C151.886 172.836 150.366 170.597 148.796 171.055C147.034 171.57 145.105 171.12 143.487 172.426C142.399 173.304 141.437 172.951 140.447 172.107C137.961 169.987 136.552 166.519 134.383 164.003C134.155 163.739 134.018 163.22 134.072 162.831C134.818 157.472 133.392 151.31 137.289 147.106C139.183 145.062 139.931 141.93 141.754 139.836C142.52 138.956 142.555 137.765 141.392 137.176C140.616 136.783 139.807 136.218 140.06 135.131C140.48 133.32 139.67 131.411 140.378 129.754C141.013 128.267 142.246 128.537 143.326 128.612C146.546 128.834 146.84 128.514 146.268 124.254C146.026 122.45 146.357 121.608 147.546 120.492C148.924 119.198 150.241 117.693 151.642 116.409C153.896 114.342 154.151 113.539 152.541 110.401C152.037 109.419 151.71 108.459 151.512 107.353C150.959 104.272 151.331 102.947 153.573 101.58C155.137 100.627 156.309 99.38 156.997 97.2959C158.192 93.675 160.494 91.6227 163.218 90.2619C164.337 89.7034 165.505 89.3139 166.631 88.7779C168.637 87.8229 170.35 87.3813 172.169 89.8781C173.366 91.5212 175.649 91.2684 177.234 92.6009C177.772 93.0545 178.61 93.1327 178.947 93.7286C180.266 96.0577 181.233 97.2635 181.982 93.2341C182.154 92.3094 183.293 92.0009 183.908 92.9503C184.842 94.3934 185.682 94.0554 186.742 93.2616C188.519 91.9304 190.581 92.6052 192.495 92.1213C194.527 91.6079 193.194 90.4718 192.932 89.4921L192.969 89.4337C194.567 89.8584 196.157 90.3422 197.766 90.6831C198.617 90.8634 199.217 90.8902 199.481 89.1611C200.055 85.4078 201.354 84.7 204.53 85.0881C205.667 85.2268 206.766 84.9725 207.917 85.6325C208.582 86.0135 209.775 85.8459 209.96 84.3133C210.217 82.1757 211.059 82.4511 212.3 82.923C213.447 83.359 215.014 84.1048 214.997 81.0995C214.993 80.3121 215.743 80.1684 216.27 80.0191C218.586 79.3641 220.745 77.9851 223.241 78.1294C225.533 78.2619 226.151 76.2877 224.92 73.4528C225.595 72.7584 225.984 71.7984 226.347 70.8145V70.8145ZM152.9 129.348C150.484 129.901 148.844 131.792 147.86 134.517C147.379 135.849 146.96 137.044 145.896 137.699C145.542 137.918 144.823 137.792 144.91 138.393C144.978 138.86 145.703 138.762 146.092 138.586C148.04 137.705 149.978 136.88 152.066 136.645C153.206 136.516 154.23 136.729 155.224 137.319C156.201 137.9 156.076 139.098 156.13 140.236C156.172 141.121 156.706 141.858 157.388 141.904C159.575 142.05 161.658 144.455 163.975 142.359C164.332 142.036 165.109 142.103 165.544 142.38C167.953 143.914 170.53 142.849 173.006 143.291C174.219 143.507 174.65 141.967 174.882 140.825C175.166 139.427 174.292 139.399 173.453 139.324C172.727 139.258 171.974 138.469 171.314 138.616C169.04 139.12 168.039 137.895 167.895 135.064C167.866 134.492 167.599 133.947 167.051 134.045C166.682 134.111 166.714 134.636 166.575 134.984C165.77 136.994 163.686 137.339 162.689 135.629C162.387 135.11 162.36 133.735 161.921 134.021C159.658 135.494 158.657 132.768 157.149 131.821C156.159 131.199 155.543 130.971 155.444 132.836C155.391 133.829 154.963 135.082 154.101 134.752C152.861 134.279 153.961 133.164 154.014 132.322C154.096 131.061 154.8 129.382 152.9 129.348V129.348ZM161.536 113.897C163.044 113.999 162.919 113.896 163.532 112.643C164.971 109.7 164.401 106.79 163.649 103.859C163.438 103.034 163.522 101.511 162.357 102.049C161.47 102.46 160.915 103.8 161.49 104.813C163.433 108.242 160.877 109.897 159.831 111.97C159.177 113.267 157.864 114.582 156.754 112.133C156.592 111.774 156.218 111.484 155.955 111.822C155.767 112.065 155.692 112.616 155.744 112.987C156.091 115.42 157.568 114.902 158.83 114.906C159.804 114.909 160.422 113.281 161.536 113.897V113.897ZM179.485 131.012C179.025 128.684 176.48 128.886 176.104 126.215C176.018 125.606 175.376 127.15 174.92 127.598C174.197 128.307 173.466 128.519 173.019 127.353C172.652 126.399 172.258 125.825 171.621 126.697C170.892 127.693 170.03 128.721 170.17 130.329C170.259 131.351 170.865 131.934 171.53 131.746C173.619 131.156 175.554 131.535 177.526 132.542C178.352 132.963 179.257 132.457 179.485 131.012ZM177.426 153.107C176.743 153.299 176.716 153.943 176.68 154.648C176.575 156.703 177.714 157.898 178.551 159.298C178.931 159.933 179.322 161.067 179.95 160.72C180.856 160.218 180.285 159.063 180.114 158.191C179.789 156.535 178.847 155.324 178.188 153.909C178.037 153.584 177.71 153.396 177.426 153.107Z" fill="#1BA939"/>
<path d="M14 116.775C16.73 114.603 19.4943 112.526 22.55 111.188C22.9398 111.017 23.4816 110.704 23.4392 110.093C23.3904 109.385 22.7319 109.693 22.3866 109.429C20.9801 108.356 19.5219 107.376 18.1887 106.165C16.5417 104.669 16.6182 103.431 18.3141 102.091C18.68 101.801 19.1105 101.651 19.5089 101.429C19.9655 101.173 20.8948 101.349 20.7124 100.475C20.5523 99.7076 19.7581 100.433 19.2473 100.396C18.8179 100.365 18.3564 100.396 17.9694 100.2C17.2229 99.821 16.5645 99.099 16.698 97.9975C16.8679 96.5952 17.8277 96.4868 18.7272 96.4734C19.1278 96.467 19.7022 97.0763 19.8802 96.4255C20.0458 95.8212 19.3596 95.7247 19.0138 95.4338C16.4304 93.2575 16.4401 92.725 19.0426 90.7649C19.7011 90.2691 20.3178 89.6599 21.0088 89.2633C22.9734 88.1364 24.8197 87.4539 27.1382 88.5118C29.6511 89.6584 32.4773 89.5915 35.128 90.3008C38.4167 91.1805 41.5392 91.2009 44.893 90.0951C48.1143 89.033 51.5674 89.8233 54.7985 91.2974C55.1866 91.4742 55.6844 91.9193 55.9863 91.3347C56.2593 90.8058 55.926 90.2318 55.5607 89.9127C55.0151 89.4373 54.5162 89.0379 54.3778 88.0519C54.2209 86.9349 53.7117 86.6855 53.0478 87.6117C52.2606 88.7097 51.3133 88.69 50.347 88.1442C49.358 87.5856 48.6018 86.7658 49.2863 85.2178C49.6696 84.3507 50.0892 83.5591 50.043 82.4892C49.9779 80.9883 50.9892 80.658 51.5658 81.1384C53.4207 82.6822 55.7463 81.8265 57.6306 83.7154C59.1799 85.2692 61.3193 85.7249 63.3632 84.1085C64.5428 83.176 65.7876 82.9696 65.5297 85.7213C65.4298 86.7898 65.7061 87.9561 66.3163 88.3752C67.9916 89.5253 69.397 90.4121 67.0122 92.6623C66.5123 93.1342 66.8841 94.0231 67.5062 94.252C68.2478 94.5245 69.3112 94.714 69.3965 93.4871C69.4964 92.0496 69.8807 91.2692 70.7455 90.4402C72.1564 89.0879 71.9191 88.2625 70.1071 88.2378C68.6348 88.2174 68.1305 86.2383 67.0226 85.4502C68.3129 85.1487 68.82 83.1407 70.2113 83.0168C70.9686 82.9492 71.7188 82.7365 72.4707 82.5759C73.5434 82.347 74.2778 81.6539 74.4358 80.1594C74.5162 79.4015 74.4738 78.7029 73.7838 78.5247C72.7996 78.2711 71.9343 77.5119 71.0462 79.3607C69.7922 81.9702 67.3076 79.7861 65.571 80.9813L65.1209 79.4353C65.3929 79.0606 65.4233 78.6867 65.1198 78.3127C65.343 76.8097 64.5021 75.4546 65.0639 73.7691C66.0063 70.942 66.243 70.6533 68.143 72.2154C68.7098 72.6817 69.435 73.2071 69.2135 74.1121C68.9166 75.3222 68.1267 74.2967 67.5622 74.346C66.8613 74.4073 66.1866 74.489 66.179 75.6299C66.1714 76.7526 66.8103 76.9519 67.5334 76.9463C68.295 76.9407 69.0588 77.0379 69.8177 76.985C71.2178 76.8878 72.0358 76.2716 70.9105 74.3904C70.4208 73.5712 69.7922 72.6669 70.5994 71.84C71.4398 70.9787 72.0228 72.2302 72.43 72.8965C72.8366 73.5621 74.2626 73.5614 73.4185 75.3905C73.1628 75.9448 74.5162 76.323 75.2072 76.5441C75.5378 76.6498 75.863 76.3878 75.9455 75.9096C76.1127 74.9383 75.756 74.291 75.1166 73.8508C75.0156 73.7836 74.9185 73.7069 74.8261 73.6212C70.7873 69.7701 70.8356 68.5622 75.1725 65.2505C75.9227 64.676 76.7358 64.2524 77.5839 63.994C82.0233 62.6206 86.573 62.2241 91.0788 61.5402C92.9619 61.2542 94.9569 62.0909 96.8884 62.5171C97.6224 62.679 98.9051 63.0721 98.923 63.4432C98.9757 64.5222 97.8205 64.4828 97.3042 65.1716C97.0111 65.5632 96.4645 65.8421 96.756 66.4999C97.0887 67.25 97.8254 67.286 98.1435 66.7324C100.039 63.4383 102.682 64.2715 105.282 64.0616C107.397 63.8912 109.534 63.5299 111.708 62.5593C114.102 61.4902 116.957 61.1803 119.647 60.9007C120.186 60.845 120.879 61.2422 121.256 60.9309C124.51 58.2461 127.231 62.2417 130.269 62.0515C130.631 62.029 130.91 62.4262 130.794 62.8974C130.707 63.2495 130.426 63.7552 130.205 63.7785C128.687 63.9398 127.161 63.982 125.639 64.0884C125.325 64.1102 125.016 64.244 124.704 64.3264C124.889 65.0174 125.362 64.7814 125.706 64.7807C128.957 64.7709 132.202 65.3667 135.464 64.8596C136.256 64.7363 137.404 64.5898 137.56 66.1358C137.683 67.3522 136.686 67.5825 136.038 68.0438C133.708 69.7032 131.11 71.1625 132.895 75.6912C133.118 76.2568 132.538 76.7794 132.548 77.2189C132.636 81.1243 130.005 84.1768 130.567 88.2484C130.725 89.3936 130.17 90.5881 129.273 90.9473C127.313 91.7319 125.788 93.9738 123.549 93.7928C123.338 93.7759 123.075 93.7949 122.911 93.9407C119.706 96.7847 115.438 98.1341 114.365 104C113.958 106.228 112.952 106.506 111.419 105.937C108.989 105.036 107.788 102.638 106.568 100.048C105.303 97.3657 104.755 94.9373 106.691 92.4179C106.994 92.0249 106.973 91.5319 106.55 91.0185C105.584 89.8465 103.877 86.0066 103.621 84.7297C102.835 80.8123 99.8291 77.614 96.8504 78.6465C93.5591 79.7875 92.3746 76.9449 90.7216 74.6953C90.0495 73.7811 90.6385 73.1416 91.246 72.7479C92.1151 72.1837 93.1389 72.1873 93.9809 71.4076C94.6632 70.7758 94.7094 70.2363 94.3614 69.3066C93.9944 68.3255 93.545 68.6706 93.0477 68.9291C90.0897 70.4659 87.4644 72.3486 86.4932 76.8132C86.1681 78.3099 85.2571 79.5311 84.9586 81.2454C84.7018 82.7203 83.1449 82.3843 82.095 82.6055C81.7123 82.6865 81.0495 82.2167 81.0158 82.9041C80.9908 83.414 81.7861 83.1703 82.127 83.4246C84.4863 85.1811 87.4123 84.112 89.7672 86.3242C91.6422 88.0857 93.8517 89.0091 94.7642 92.3207C95.2094 93.9371 96.9351 94.5217 98.2347 95.2303C98.8422 95.5613 99.7232 95.817 99.0599 96.8361C98.5403 97.6341 98.2939 99.5477 96.9042 98.5969C96.4362 98.2764 96.0877 97.6672 95.6746 97.2051C95.4346 96.9368 95.1095 96.5783 94.8429 96.8812C94.5487 97.215 94.8353 97.6305 95.04 97.9327C95.3277 98.3581 95.6795 98.718 95.9346 99.1709C96.4004 99.9977 97.6207 100.771 96.6659 101.91C95.9455 102.77 95.0384 104.154 93.8186 103.412C91.4153 101.95 89.2624 99.5963 86.3184 100.275C86.0394 100.339 85.7653 99.8597 85.7604 99.3984C85.7544 98.8821 86.0378 98.6708 86.3923 98.6342C86.9346 98.5779 87.5084 98.6807 88.0154 98.4849C89.4073 97.9468 90.2623 95.7148 89.7667 94.1062C89.1907 92.2376 85.7012 90.0648 84.0493 90.3106C82.8783 90.4853 83.6427 91.0833 83.5634 91.7291C83.3403 93.5491 84.4581 96.4332 81.4723 96.5889C80.4121 96.6445 81.2514 97.7778 81.6786 98.2912C82.4549 99.2244 84.2708 99.3716 84.058 100.731C83.8555 102.027 82.0852 100.143 81.1879 101.463C80.8144 102.012 80.1179 102.069 79.6717 101.597C77.9204 99.7428 76.8629 101.667 75.7447 102.816C72.418 106.237 72.5554 108.127 76.4173 110.541C77.2907 111.087 78.0958 111.908 79.0306 112.203C81.4658 112.973 83.5406 114.151 84.1524 117.765C84.2605 118.402 84.8663 119.556 85.5986 118.664C86.0014 118.173 86.0041 117.355 85.6931 116.762C84.7393 114.945 84.9195 113.74 86.5557 112.811C87.2858 112.396 87.0638 111.305 86.7581 110.548C86.2147 109.203 86.4232 107.784 86.3733 106.387C86.2462 102.806 87.7966 101.495 90.2824 103.197C91.2275 103.844 92.3148 104.603 92.8441 105.708C93.7322 107.563 94.4304 108.524 96.149 107.142C97.2662 106.243 98.061 107.623 98.422 108.745C99.2119 111.201 100.656 112.783 102.126 114.478C103.246 115.769 105.017 116.929 103.963 119.692C103.622 120.584 104.392 120.781 104.814 121.15C105.546 121.792 106.232 122.503 106.395 123.727C106.47 124.289 106.189 125.282 106.136 125.228C104.936 124.023 103.504 125.171 102.324 124.556C101.528 124.142 101.483 123.048 101.781 121.98C102.239 120.34 101.576 120.382 100.634 120.685C100.007 120.886 99.3166 121.015 98.6875 120.892C96.4194 120.449 96.547 121.449 97.2364 123.796C97.8482 125.878 98.4746 125.716 99.6157 124.88C100.149 124.489 100.711 124.577 100.961 125.389C101.198 126.16 100.828 127.062 100.375 127.157C98.6739 127.515 97.2852 130.174 95.2647 128.305C94.6567 127.743 93.6351 128.17 93.5308 128.797C93.1183 131.288 91.5006 131.943 90.1662 133.086C89.9143 133.302 89.7303 133.743 89.6201 134.131C88.6381 137.566 87.2348 140.507 84.9081 142.816C83.7257 143.99 83.6492 146.03 84.8625 147.717C85.458 148.545 85.6263 149.687 84.8239 150.283C84.0292 150.872 83.9174 149.393 83.4402 148.935C82.9315 148.447 82.5016 147.738 82.1791 147.019C81.2286 144.9 79.7689 144.672 78.2141 145.319C77.2625 145.715 76.3434 146.014 75.3516 146.015C73.3995 146.016 71.6569 145.891 72.1097 149.855C72.2785 151.333 70.6488 152.994 72.1395 154.881C73.2252 156.255 74.2062 156.908 75.5758 155.798C76.0378 155.424 76.4699 154.986 76.9373 154.623C77.6181 154.094 78.4649 153.688 79.1142 154.21C80.1103 155.012 79.1348 156.019 78.8715 156.715C78.0247 158.955 78.1913 160.116 80.3589 160.092C81.5152 160.081 82.1607 161.083 82.1873 162.558C82.2123 163.94 81.7606 165.678 83.1226 166.212C84.5433 166.768 86.3467 166.957 87.4552 165.807C89.8416 163.333 92.1927 163.857 94.7582 164.9C95.4482 165.18 96.1648 165.313 96.8862 165.374C101.048 165.731 103.338 170.83 107.159 172.034C108.462 177.884 113.118 176.98 116.115 179.409C116.892 180.039 117.89 180.362 118.73 181.035C120.351 182.333 120.798 184 119.568 185.958C118.338 187.914 118.02 190.207 117.497 192.525C116.637 196.335 116.107 200.736 111.885 201.082C110.748 201.176 110.156 202.565 109.82 204.047C108.469 209.997 107.981 210.625 103.027 213.108C102.642 213.301 102.531 213.498 102.657 213.956C103.435 216.783 101.943 217.553 100.364 217.745C98.8878 217.924 98.8123 219.517 98.2266 220.553C97.1734 222.418 96.9281 224.957 95.3581 226.437C95.2604 226.53 95.37 227.349 95.5573 227.535C96.5725 228.546 96.1224 229.198 95.477 230.25C93.336 233.743 93.3745 233.935 95.2973 237.569C95.6046 238.149 96.1984 238.582 95.2338 239.003C92.6259 240.141 90.1776 238.568 89.1896 235.199C88.4188 232.572 88.3732 229.701 88.9117 227.245C90.0359 222.116 89.872 216.787 90.8274 211.586C91.5586 207.605 92.1487 203.175 92.1976 198.841C92.2285 196.129 91.3947 194.04 89.739 192.77C87.9063 191.365 86.8792 189.39 86.1887 186.929C86.0052 186.275 85.6757 185.692 85.4439 185.058C84.8321 183.386 82.4012 182.833 83.7963 179.871C84.5509 178.269 84.2192 175.939 85.6095 174.615C86.5046 173.763 86.5502 172.523 86.6018 171.205C86.6572 169.797 86.3955 169.217 85.2018 169.066C83.0428 168.794 80.7797 168.492 80.2477 164.833C80.132 164.037 79.3981 163.95 78.9122 163.823C76.4042 163.161 74.426 161.001 71.5272 160.864C69.0805 160.748 65.7832 159.137 64.5417 154.909C63.9934 153.042 63.38 151.685 61.1114 152.281C59.2559 152.768 58.0518 149.741 57.4221 147.547C56.4401 144.127 55.0401 141.501 52.7725 139.147C50.3215 136.602 49.6484 132.421 49.7103 128.358C49.7526 125.582 49.9149 122.954 47.6132 121.443C47.123 121.121 46.9222 120.604 46.8543 119.773C46.5845 116.477 46.376 116.292 43.678 116.014C42.81 115.924 42.8442 114.968 42.525 114.271C40.5626 109.987 38.0703 106.815 33.9061 106.232C32.3969 106.02 31.4703 107.03 30.2656 107.332C28.9872 107.652 27.4656 106.879 28.3059 109.962C28.554 110.873 27.4536 112.253 26.5536 111.875C24.9082 111.184 24.1243 112.328 23.2807 113.685C23.0798 114.008 22.8236 114.506 22.581 114.518C19.5996 114.665 17.135 117.23 14.1911 117.51L14 116.775V116.775ZM75.9775 85.1544C75.4428 85.2713 74.9087 85.4079 74.5379 85.9847C74.115 86.6426 74.2741 87.3328 74.6275 87.8836C75.7718 89.6662 76.6225 91.8749 78.6468 92.406C79.0398 92.5088 78.5447 94.0604 79.3921 93.7892C79.8058 93.6575 80.2319 92.8616 80.3817 92.2538C80.575 91.4699 80.0251 90.9234 79.5126 90.7593C77.7565 90.1972 77.1365 88.5837 76.9482 86.4735C76.8836 85.753 76.7142 85.0825 75.9775 85.1544V85.1544Z" fill="#1BA939"/>
<path d="M258.405 189.98C258.376 187.903 258.437 186.124 256.717 185.585C256.507 185.519 256.125 185.371 256.131 185.308C256.512 181.011 253.593 181.704 251.898 180.54C251.524 180.282 251.209 179.844 250.914 179.432C250.387 178.694 249.774 177.789 250.383 176.841C251.096 175.729 252.235 176.1 252.617 177.099C253.415 179.191 254.405 178.57 255.776 178.413C258.81 178.064 261.243 180.172 262.897 183.278C263.539 184.485 265.343 185.836 264.784 186.636C263.893 187.911 262.747 185.963 261.735 185.301C260.921 184.768 260.211 185.033 259.674 185.842C259.074 186.745 259.472 187.639 259.813 188.578C261.47 193.152 263.907 197.035 266.234 201.019C268.4 204.727 268.522 206.774 266.785 210.814C266.464 211.56 266.135 212.301 265.862 213.078C263.765 219.049 260.289 219.785 256.724 215.404C255.037 213.331 253.005 211.708 251.052 210.034C249.834 208.99 248.585 209.491 247.356 210.379C245.357 211.822 243.262 212.848 240.921 213.149C238.362 213.477 238.332 213.665 237.973 210.306C237.663 207.418 236.332 204.897 236.64 201.713C236.886 199.172 237.624 197.909 239.436 197.242C240.933 196.69 242.336 196.337 243.061 193.698C243.464 192.236 245.586 190.768 247.351 190.875C248.379 190.938 248.955 190.732 249.47 189.596C250.277 187.815 251.665 188.014 252.98 188.142C253.835 188.225 254.553 188.732 254.342 189.991C253.867 192.829 255.275 193.776 256.882 193.662C258.728 193.53 258.23 191.211 258.405 189.98V189.98ZM159.093 69.4753C158.042 69.812 156.61 68.3554 155.942 70.4479C155.257 72.5968 157.164 73.1574 157.628 74.6273C157.886 75.4457 158.442 75.9071 158.955 76.436C159.88 77.3896 160.86 77.5361 161.458 76.1698C162.379 74.0639 163.378 74.0273 164.723 75.3845C165.071 75.7359 165.558 75.6599 165.927 75.2647C166.202 74.9696 166.353 74.428 166.078 74.1618C163.183 71.3586 165.773 71.834 167.017 71.3952C167.52 71.2171 167.979 70.7754 168.427 70.3909C168.678 70.1747 169.03 69.8394 169.041 69.5401C169.058 69.0907 168.626 69.0273 168.324 69.0013C166.809 68.8717 165.386 67.9117 163.669 68.2315C162.117 67.8089 160.663 68.9724 159.093 69.4753V69.4753ZM62.864 76.9311C62.3564 76.1944 61.5736 76.0198 61.2615 77.0121C60.0444 80.8802 58.5624 77.9489 57.6385 77.0312C55.1744 74.5851 54.1137 74.4534 52.0221 77.0804C51.1155 78.2193 51.0585 78.9335 52.4156 79.2857C54.2244 79.7547 55.9247 80.4295 57.5608 81.6916C59.5428 83.2207 63.5317 81.8092 65.119 79.435C65.391 79.0603 65.4214 78.6863 65.118 78.3123C64.1609 78.4151 63.4818 77.8277 62.864 76.9311V76.9311ZM232.932 174.976C232.815 175.085 232.794 175.524 232.847 175.766C233.267 177.683 233.712 179.606 235.476 180.159C237.001 180.638 238.117 180.101 239.087 178.315C240.301 176.079 239.749 173.423 240.444 171.077C240.7 170.211 239.844 169.752 238.718 169.742C236.968 171.315 234.94 173.127 232.932 174.976ZM186.201 189.168C184.843 190.407 182.959 191.376 182.261 193.261C181.457 195.432 181.167 198.059 181.283 200.601C181.324 201.494 181.686 202.206 182.432 202.378C183.334 202.587 184.406 202.51 184.663 201.31C185.378 197.986 186.764 194.936 187.117 191.681C186.813 190.575 187.097 188.351 186.201 189.168ZM192.97 89.4411C190.723 86.2041 190.726 85.5216 193.275 82.7769C194.778 81.1577 196.419 79.8104 198.374 79.2117C199.209 78.956 200.025 78.5433 200.807 78.0827C201.016 77.9601 201.185 77.3903 201.171 77.0396C201.145 76.3754 200.719 76.031 200.257 76.1782C196.046 77.5143 191.832 78.8574 189.105 83.8433C188.014 85.8365 188.389 88.0036 190.058 89.0819C190.972 89.6729 191.964 89.4841 192.934 89.4989L192.97 89.4411ZM281.644 225.976C282.43 223.517 283.86 221.976 285.451 220.443C287.381 218.583 287.243 217.239 285.251 215.192C284.83 214.759 284.409 214.05 283.864 214.373C283.207 214.762 283.625 215.579 283.712 216.227C283.962 218.102 283.769 219.384 282.182 220.472C280.834 221.397 279.875 223.365 278.863 224.996C278.066 226.281 278.497 227.64 279.737 227.733C280.587 227.748 281.319 226.993 281.644 225.976V225.976ZM258.383 132.602C257.945 132.275 257.486 132.39 257.257 132.925C255.868 136.169 253.553 137.753 251.031 139.089C250 139.635 249.282 140.76 249.335 142.381C249.356 143.008 249.624 143.561 250.13 143.27C252.435 141.941 254.813 140.747 256.961 139.066C258.253 138.055 258.69 135.925 258.99 134.273C259.025 133.337 258.779 132.897 258.383 132.602ZM223.244 67.1919C221.682 65.8685 220.718 67.1285 220.134 68.6956C219.526 70.3254 219.97 71.7636 221.443 72.3116C222.593 72.7391 223.761 73.0814 224.921 73.4617C225.595 72.7595 225.984 71.7995 226.347 70.8156C225.63 69.1499 224.425 68.1913 223.244 67.1919ZM255.275 79.18C254.632 80.6443 256.006 80.8675 256.492 81.6423C256.696 81.9677 256.926 82.2705 257.1 82.6206C257.589 83.6031 258.178 84.6328 259.153 84.2187C260.359 83.7066 258.868 82.5445 259.339 81.7486C259.598 81.3106 259.817 80.8288 260.092 80.4097C260.743 79.4174 260.312 78.8743 259.596 78.6187C258.981 78.3989 258.319 78.3961 257.89 78.3306C256.825 78.4489 255.747 78.1059 255.275 79.18ZM243.018 164.995C244.074 166.178 245.033 165.237 245.567 164.4C246.145 163.495 245.507 162.445 244.662 162.227C243.132 161.833 243.04 160.863 243.571 159.201C243.796 158.496 243.153 157.891 242.637 157.71C241.949 157.468 241.703 158.274 241.531 158.924C241.393 159.447 241.409 160.039 241.356 160.599C241.249 162.492 241.975 163.826 243.018 164.995V164.995ZM240.447 178.649C240.527 179.906 240.665 181.705 241.717 182.017C242.285 182.186 243.737 181.522 243.642 179.865C243.572 178.652 243.352 177.31 242.043 177.132C241.264 177.182 240.376 177.526 240.447 178.649Z" fill="#1BA939"/>
<path d="M107.469 56.5H120.719V136H110.781V64.7812L87.5938 84.6562L82.625 78.0312L107.469 56.5ZM163.781 136H150.531L211.812 64.7812H133.969V56.5H223.406V66.4375L163.781 136Z" fill="#F7F7F7"/>
<path d="M107.469 56.5V55.9H107.245L107.076 56.0466L107.469 56.5ZM120.719 56.5H121.319V55.9H120.719V56.5ZM120.719 136V136.6H121.319V136H120.719ZM110.781 136H110.181V136.6H110.781V136ZM110.781 64.7812H111.381V63.4767L110.391 64.3257L110.781 64.7812ZM87.5938 84.6562L87.1137 85.0163L87.498 85.5286L87.9842 85.1118L87.5938 84.6562ZM82.625 78.0312L82.232 77.5778L81.8096 77.944L82.145 78.3913L82.625 78.0312ZM107.469 57.1H120.719V55.9H107.469V57.1ZM120.119 56.5V136H121.319V56.5H120.119ZM120.719 135.4H110.781V136.6H120.719V135.4ZM111.381 136V64.7812H110.181V136H111.381ZM110.391 64.3257L87.2033 84.2007L87.9842 85.1118L111.172 65.2368L110.391 64.3257ZM88.0738 84.2962L83.105 77.6712L82.145 78.3913L87.1137 85.0163L88.0738 84.2962ZM83.018 78.4847L107.862 56.9534L107.076 56.0466L82.232 77.5778L83.018 78.4847ZM163.781 136V136.6H164.057L164.237 136.39L163.781 136ZM150.531 136L150.076 135.609L149.223 136.6H150.531V136ZM211.812 64.7812L212.267 65.1726L213.12 64.1812H211.812V64.7812ZM133.969 64.7812H133.369V65.3813H133.969V64.7812ZM133.969 56.5V55.9H133.369V56.5H133.969ZM223.406 56.5H224.006V55.9H223.406V56.5ZM223.406 66.4375L223.862 66.828L224.006 66.6595V66.4375H223.406ZM163.781 135.4H150.531V136.6H163.781V135.4ZM150.986 136.391L212.267 65.1726L211.358 64.3899L150.076 135.609L150.986 136.391ZM211.812 64.1812H133.969V65.3813H211.812V64.1812ZM134.569 64.7812V56.5H133.369V64.7812H134.569ZM133.969 57.1H223.406V55.9H133.969V57.1ZM222.806 56.5V66.4375H224.006V56.5H222.806ZM222.951 66.047L163.326 135.61L164.237 136.39L223.862 66.828L222.951 66.047Z" fill="black"/>
<path d="M78.6069 143.328C83.8205 143.328 88.2046 143.654 91.7593 144.306C95.3436 144.928 98.291 145.89 100.602 147.194C102.912 148.468 104.689 150.082 105.934 152.037C107.178 153.992 108.081 156.288 108.644 158.924C109.236 161.561 109.577 164.538 109.666 167.855C109.785 171.173 109.844 174.846 109.844 178.875C109.844 182.904 109.785 186.577 109.666 189.895C109.577 193.212 109.236 196.189 108.644 198.826C108.081 201.462 107.178 203.758 105.934 205.713C104.689 207.668 102.912 209.297 100.602 210.601C98.291 211.874 95.3436 212.822 91.7593 213.444C88.2046 214.096 83.8205 214.422 78.6069 214.422H52.9243C47.7108 214.422 43.3118 214.096 39.7275 213.444C36.1729 212.822 33.2402 211.874 30.9297 210.601C28.6191 209.297 26.827 207.668 25.5532 205.713C24.3091 203.758 23.3908 201.462 22.7983 198.826C22.2355 196.189 21.9097 193.212 21.8208 189.895C21.7319 186.577 21.6875 182.904 21.6875 178.875C21.6875 174.846 21.7319 171.173 21.8208 167.855C21.9097 164.538 22.2355 161.561 22.7983 158.924C23.3908 156.288 24.3091 153.992 25.5532 152.037C26.827 150.082 28.6191 148.468 30.9297 147.194C33.2402 145.89 36.1729 144.928 39.7275 144.306C43.3118 143.654 47.7108 143.328 52.9243 143.328H78.6069ZM78.6069 207.312C82.369 207.312 85.5386 207.209 88.1157 207.001C90.7225 206.764 92.8701 206.305 94.5586 205.624C96.2471 204.943 97.5505 203.965 98.4688 202.691C99.387 201.418 100.054 199.729 100.468 197.626C100.883 195.523 101.12 192.946 101.179 189.895C101.268 186.814 101.312 183.141 101.312 178.875C101.312 174.609 101.268 170.951 101.179 167.9C101.12 164.819 100.883 162.227 100.468 160.124C100.054 158.021 99.387 156.332 98.4688 155.059C97.5505 153.785 96.2471 152.807 94.5586 152.126C92.8997 151.445 90.7669 151 88.1602 150.793C85.583 150.556 82.3986 150.438 78.6069 150.438H52.9243C49.1326 150.438 45.9334 150.556 43.3267 150.793C40.7495 151 38.6167 151.445 36.9282 152.126C35.2397 152.807 33.9364 153.785 33.0181 155.059C32.0998 156.332 31.4333 158.021 31.0186 160.124C30.6038 162.227 30.3669 164.819 30.3076 167.9C30.2484 170.951 30.2188 174.609 30.2188 178.875C30.2188 183.141 30.2484 186.814 30.3076 189.895C30.3965 192.946 30.6483 195.523 31.063 197.626C31.4777 199.729 32.1294 201.418 33.0181 202.691C33.9364 203.965 35.2397 204.943 36.9282 205.624C38.6167 206.305 40.7495 206.764 43.3267 207.001C45.9334 207.209 49.1326 207.312 52.9243 207.312H78.6069ZM170.656 205.891C174.418 205.891 177.602 205.787 180.209 205.58C182.816 205.372 184.963 204.958 186.652 204.335C188.34 203.684 189.644 202.751 190.562 201.536C191.48 200.322 192.147 198.722 192.561 196.737C193.006 194.723 193.257 192.264 193.317 189.361C193.406 186.429 193.45 182.933 193.45 178.875C193.45 174.817 193.406 171.336 193.317 168.433C193.257 165.5 193.006 163.042 192.561 161.057C192.147 159.043 191.48 157.428 190.562 156.214C189.644 154.999 188.34 154.081 186.652 153.459C184.963 152.807 182.816 152.378 180.209 152.17C177.632 151.963 174.447 151.859 170.656 151.859H128.044V205.891H170.656ZM119.512 213V144.75H170.656C175.869 144.75 180.253 145.061 183.808 145.683C187.392 146.276 190.34 147.194 192.65 148.438C194.99 149.682 196.783 151.237 198.027 153.104C199.3 154.97 200.219 157.177 200.782 159.724C201.374 162.242 201.715 165.101 201.804 168.3C201.922 171.469 201.981 174.994 201.981 178.875C201.981 182.756 201.922 186.295 201.804 189.495C201.715 192.664 201.374 195.523 200.782 198.07C200.219 200.588 199.3 202.78 198.027 204.646C196.783 206.513 194.99 208.068 192.65 209.312C190.34 210.556 187.392 211.489 183.808 212.111C180.253 212.704 175.869 213 170.656 213H119.512ZM254.662 174.609C259.342 174.609 263.356 174.802 266.703 175.187C270.051 175.572 272.865 176.15 275.146 176.92C277.456 177.66 279.293 178.594 280.655 179.719C282.018 180.845 283.07 182.133 283.81 183.585C284.551 185.007 285.025 186.606 285.232 188.384C285.469 190.161 285.587 192.087 285.587 194.16C285.587 196.234 285.395 198.189 285.01 200.025C284.654 201.832 284.003 203.491 283.055 205.002C282.107 206.513 280.818 207.861 279.189 209.045C277.56 210.23 275.486 211.237 272.968 212.067C270.45 212.896 267.414 213.518 263.859 213.933C260.334 214.377 256.202 214.6 251.462 214.6H240.087C235.822 214.6 232.089 214.437 228.89 214.111C225.691 213.785 222.936 213.296 220.626 212.645C218.315 211.963 216.404 211.119 214.894 210.112C213.383 209.075 212.168 207.875 211.25 206.513C210.361 205.12 209.739 203.55 209.384 201.803C209.028 200.025 208.851 198.07 208.851 195.938H217.382C217.382 198.604 217.767 200.692 218.537 202.203C219.307 203.713 220.581 204.854 222.358 205.624C224.136 206.365 226.461 206.839 229.335 207.046C232.238 207.224 235.822 207.312 240.087 207.312H251.462C256.439 207.312 260.571 207.076 263.859 206.602C267.148 206.128 269.769 205.372 271.724 204.335C273.679 203.299 275.057 201.951 275.857 200.292C276.656 198.604 277.056 196.56 277.056 194.16C277.056 191.761 276.775 189.761 276.212 188.162C275.679 186.562 274.598 185.288 272.968 184.34C271.369 183.392 269.103 182.726 266.17 182.341C263.237 181.926 259.401 181.719 254.662 181.719H242.931C237.718 181.719 233.245 181.526 229.512 181.141C225.809 180.756 222.699 180.208 220.181 179.497C217.663 178.757 215.649 177.853 214.138 176.787C212.628 175.691 211.472 174.446 210.672 173.054C209.902 171.662 209.399 170.122 209.162 168.433C208.925 166.715 208.806 164.864 208.806 162.879C208.806 160.805 208.984 158.88 209.339 157.103C209.725 155.325 210.421 153.726 211.428 152.304C212.435 150.852 213.812 149.564 215.56 148.438C217.308 147.312 219.544 146.379 222.27 145.639C225.025 144.868 228.327 144.291 232.178 143.906C236.029 143.521 240.561 143.328 245.775 143.328H254.306C258.572 143.328 262.304 143.491 265.504 143.817C268.703 144.113 271.458 144.602 273.768 145.283C276.079 145.935 277.989 146.764 279.5 147.771C281.04 148.749 282.255 149.934 283.144 151.326C284.062 152.689 284.699 154.244 285.054 155.992C285.41 157.739 285.587 159.68 285.587 161.812H277.056C277.056 159.146 276.671 157.058 275.901 155.547C275.131 154.037 273.857 152.911 272.08 152.17C270.302 151.4 267.962 150.926 265.059 150.749C262.156 150.541 258.572 150.438 254.306 150.438H245.775C240.087 150.438 235.407 150.645 231.734 151.06C228.061 151.445 225.158 152.111 223.025 153.059C220.892 154.007 219.411 155.281 218.582 156.88C217.752 158.48 217.337 160.479 217.337 162.879C217.337 164.36 217.441 165.678 217.649 166.833C217.856 167.989 218.271 169.011 218.893 169.899C219.544 170.758 220.448 171.484 221.603 172.077C222.758 172.669 224.284 173.158 226.18 173.543C228.076 173.928 230.386 174.209 233.111 174.387C235.866 174.535 239.14 174.609 242.931 174.609H254.662Z" fill="#F7F7F7"/>
<path d="M91.7593 144.306L91.6511 144.896L91.6567 144.897L91.7593 144.306ZM100.602 147.194L100.307 147.716L100.312 147.719L100.602 147.194ZM108.644 158.924L108.057 159.05L108.059 159.056L108.644 158.924ZM109.666 167.855L109.066 167.872L109.066 167.877L109.666 167.855ZM109.666 189.895L109.066 189.873L109.066 189.878L109.666 189.895ZM108.644 198.826L108.059 198.694L108.057 198.7L108.644 198.826ZM100.602 210.601L100.891 211.126L100.896 211.123L100.602 210.601ZM91.7593 213.444L91.6567 212.853L91.6511 212.854L91.7593 213.444ZM39.7275 213.444L39.8349 212.854L39.831 212.853L39.7275 213.444ZM30.9297 210.601L30.6349 211.123L30.64 211.126L30.9297 210.601ZM25.5532 205.713L25.047 206.035L25.0505 206.04L25.5532 205.713ZM22.7983 198.826L22.2115 198.951L22.2129 198.957L22.7983 198.826ZM22.7983 158.924L22.2129 158.793L22.2116 158.799L22.7983 158.924ZM25.5532 152.037L25.0505 151.71L25.047 151.715L25.5532 152.037ZM30.9297 147.194L31.2194 147.719L31.2245 147.716L30.9297 147.194ZM39.7275 144.306L39.831 144.897L39.8349 144.896L39.7275 144.306ZM88.1157 207.001L88.1638 207.6L88.17 207.599L88.1157 207.001ZM98.4688 202.691L98.9555 203.042L98.4688 202.691ZM100.468 197.626L99.8796 197.51L99.8796 197.51L100.468 197.626ZM101.179 189.895L100.579 189.877L100.579 189.883L101.179 189.895ZM101.179 167.9L100.579 167.911L100.579 167.917L101.179 167.9ZM94.5586 152.126L94.3306 152.681L94.3341 152.682L94.5586 152.126ZM88.1602 150.793L88.1052 151.39L88.1126 151.391L88.1602 150.793ZM43.3267 150.793L43.3748 151.391L43.381 151.391L43.3267 150.793ZM30.3076 167.9L30.9075 167.912L30.9075 167.911L30.3076 167.9ZM30.3076 189.895L29.7077 189.906L29.7079 189.912L30.3076 189.895ZM33.0181 202.691L32.5259 203.035L32.5314 203.042L33.0181 202.691ZM36.9282 205.624L36.7037 206.18L36.9282 205.624ZM43.3267 207.001L43.2717 207.599L43.2791 207.6L43.3267 207.001ZM78.6069 143.928C83.7986 143.928 88.1439 144.253 91.6511 144.896L91.8675 143.716C88.2653 143.055 83.8423 142.728 78.6069 142.728V143.928ZM91.6567 144.897C95.1968 145.511 98.0735 146.457 100.307 147.716L100.896 146.671C98.5085 145.324 95.4904 144.344 91.8619 143.715L91.6567 144.897ZM100.312 147.719C102.547 148.951 104.244 150.5 105.427 152.359L106.44 151.715C105.135 149.664 103.278 147.984 100.891 146.668L100.312 147.719ZM105.427 152.359C106.627 154.245 107.507 156.472 108.057 159.05L109.231 158.799C108.655 156.104 107.728 153.739 106.44 151.715L105.427 152.359ZM108.059 159.056C108.641 161.647 108.978 164.584 109.066 167.872L110.266 167.839C110.176 164.491 109.832 161.475 109.229 158.793L108.059 159.056ZM109.066 167.877C109.185 171.186 109.244 174.852 109.244 178.875H110.444C110.444 174.841 110.384 171.16 110.266 167.834L109.066 167.877ZM109.244 178.875C109.244 182.898 109.185 186.564 109.066 189.873L110.266 189.916C110.384 186.59 110.444 182.909 110.444 178.875H109.244ZM109.066 189.878C108.978 193.166 108.641 196.103 108.059 198.694L109.229 198.957C109.832 196.275 110.176 193.259 110.266 189.911L109.066 189.878ZM108.057 198.7C107.507 201.278 106.627 203.505 105.427 205.391L106.44 206.035C107.728 204.011 108.655 201.646 109.231 198.951L108.057 198.7ZM105.427 205.391C104.243 207.251 102.544 208.816 100.307 210.078L100.896 211.123C103.28 209.778 105.135 208.085 106.44 206.035L105.427 205.391ZM100.312 210.075C98.0771 211.307 95.1984 212.238 91.6567 212.853L91.8619 214.035C95.4887 213.406 98.505 212.442 100.891 211.126L100.312 210.075ZM91.6511 212.854C88.1439 213.497 83.7986 213.822 78.6069 213.822V215.022C83.8423 215.022 88.2653 214.695 91.8675 214.034L91.6511 212.854ZM78.6069 213.822H52.9243V215.022H78.6069V213.822ZM52.9243 213.822C47.7328 213.822 43.3723 213.497 39.8349 212.854L39.6202 214.035C43.2514 214.695 47.6888 215.022 52.9243 215.022V213.822ZM39.831 212.853C36.3193 212.239 33.4549 211.308 31.2194 210.075L30.64 211.126C33.0256 212.441 36.0264 213.406 39.6241 214.035L39.831 212.853ZM31.2245 210.078C28.9863 208.815 27.2703 207.249 26.0559 205.385L25.0505 206.04C26.3837 208.087 28.252 209.779 30.6349 211.123L31.2245 210.078ZM26.0594 205.391C24.8581 203.503 23.9635 201.274 23.3837 198.694L22.2129 198.957C22.8181 201.65 23.7601 204.013 25.047 206.035L26.0594 205.391ZM23.3851 198.7C22.8315 196.107 22.5087 193.168 22.4206 189.878L21.221 189.911C21.3107 193.257 21.6396 196.272 22.2116 198.951L23.3851 198.7ZM22.4206 189.878C22.3319 186.567 22.2875 182.899 22.2875 178.875H21.0875C21.0875 182.908 21.132 186.587 21.221 189.911L22.4206 189.878ZM22.2875 178.875C22.2875 174.851 22.3319 171.183 22.4206 167.872L21.221 167.839C21.132 171.163 21.0875 174.842 21.0875 178.875H22.2875ZM22.4206 167.872C22.5087 164.582 22.8315 161.643 23.3851 159.05L22.2116 158.799C21.6396 161.478 21.3107 164.493 21.221 167.839L22.4206 167.872ZM23.3837 159.056C23.9635 156.476 24.8581 154.247 26.0594 152.359L25.047 151.715C23.7601 153.737 22.8181 156.1 22.2129 158.793L23.3837 159.056ZM26.0559 152.365C27.2693 150.502 28.9836 148.952 31.2194 147.719L30.64 146.668C28.2547 147.983 26.3847 149.662 25.0505 151.71L26.0559 152.365ZM31.2245 147.716C33.4585 146.456 36.3209 145.511 39.831 144.897L39.6241 143.715C36.0248 144.345 33.022 145.325 30.6349 146.671L31.2245 147.716ZM39.8349 144.896C43.3723 144.253 47.7328 143.928 52.9243 143.928V142.728C47.6888 142.728 43.2514 143.055 39.6202 143.715L39.8349 144.896ZM52.9243 143.928H78.6069V142.728H52.9243V143.928ZM78.6069 207.913C82.3785 207.913 85.5653 207.809 88.1638 207.6L88.0676 206.403C85.5119 206.609 82.3594 206.712 78.6069 206.712V207.913ZM88.17 207.599C90.812 207.359 93.0222 206.891 94.7831 206.18L94.3341 205.068C92.7181 205.72 90.633 206.17 88.0614 206.404L88.17 207.599ZM94.7831 206.18C96.5595 205.464 97.9609 204.422 98.9555 203.042L97.982 202.341C97.14 203.509 95.9346 204.422 94.3341 205.068L94.7831 206.18ZM98.9555 203.042C99.9391 201.678 100.631 199.901 101.057 197.742L99.8796 197.51C99.4758 199.558 98.835 201.157 97.982 202.341L98.9555 203.042ZM101.057 197.742C101.481 195.593 101.719 192.979 101.779 189.906L100.579 189.883C100.52 192.912 100.285 195.452 99.8796 197.51L101.057 197.742ZM101.779 189.912C101.868 186.824 101.913 183.144 101.913 178.875H100.712C100.712 183.137 100.668 186.804 100.579 189.877L101.779 189.912ZM101.913 178.875C101.913 174.606 101.868 170.941 101.779 167.882L100.579 167.917C100.668 170.961 100.712 174.613 100.712 178.875H101.913ZM101.779 167.888C101.719 164.786 101.481 162.157 101.057 160.008L99.8796 160.24C100.285 162.298 100.52 164.852 100.579 167.911L101.779 167.888ZM101.057 160.008C100.631 157.849 99.9391 156.072 98.9555 154.708L97.982 155.409C98.835 156.593 99.4758 158.192 99.8796 160.24L101.057 160.008ZM98.9555 154.708C97.9609 153.328 96.5595 152.286 94.7831 151.57L94.3341 152.682C95.9346 153.328 97.14 154.241 97.982 155.409L98.9555 154.708ZM94.7865 151.571C93.0504 150.858 90.8508 150.405 88.2077 150.195L88.1126 151.391C90.6831 151.596 92.7491 152.031 94.3306 152.681L94.7865 151.571ZM88.2151 150.195C85.6134 149.956 82.4094 149.837 78.6069 149.837V151.038C82.3878 151.038 85.5526 151.156 88.1052 151.39L88.2151 150.195ZM78.6069 149.837H52.9243V151.038H78.6069V149.837ZM52.9243 149.837C49.1218 149.837 45.9032 149.956 43.2723 150.195L43.381 151.391C45.9637 151.156 49.1435 151.038 52.9243 151.038V149.837ZM43.2785 150.195C40.6641 150.405 38.4667 150.858 36.7037 151.57L37.1527 152.682C38.7667 152.031 40.835 151.595 43.3748 151.391L43.2785 150.195ZM36.7037 151.57C34.9273 152.286 33.5259 153.328 32.5314 154.708L33.5048 155.409C34.3468 154.241 35.5522 153.328 37.1527 152.682L36.7037 151.57ZM32.5314 154.708C31.5477 156.072 30.8556 157.849 30.4299 160.008L31.6072 160.24C32.011 158.192 32.6518 156.593 33.5048 155.409L32.5314 154.708ZM30.4299 160.008C30.0062 162.157 29.7674 164.786 29.7077 167.888L30.9075 167.911C30.9663 164.852 31.2015 162.298 31.6072 160.24L30.4299 160.008ZM29.7077 167.888C29.6484 170.944 29.6187 174.607 29.6187 178.875H30.8188C30.8188 174.612 30.8484 170.958 30.9075 167.912L29.7077 167.888ZM29.6187 178.875C29.6187 183.143 29.6484 186.82 29.7077 189.906L30.9075 189.883C30.8484 186.807 30.8188 183.138 30.8188 178.875H29.6187ZM29.7079 189.912C29.7973 192.984 30.0511 195.596 30.4743 197.742L31.6517 197.51C31.2454 195.45 30.9956 192.908 30.9074 189.877L29.7079 189.912ZM30.4743 197.742C30.8994 199.898 31.5753 201.672 32.526 203.035L33.5101 202.348C32.6835 201.163 32.056 199.561 31.6517 197.51L30.4743 197.742ZM32.5314 203.042C33.5259 204.422 34.9273 205.464 36.7037 206.18L37.1527 205.068C35.5522 204.422 34.3468 203.509 33.5048 202.341L32.5314 203.042ZM36.7037 206.18C38.4639 206.891 40.6587 207.359 43.2717 207.599L43.3816 206.404C40.8403 206.17 38.7695 205.72 37.1527 205.068L36.7037 206.18ZM43.2791 207.6C45.907 207.809 49.1231 207.913 52.9243 207.913V206.712C49.1422 206.712 45.9599 206.609 43.3742 206.403L43.2791 207.6ZM52.9243 207.913H78.6069V206.712H52.9243V207.913ZM186.652 204.335L186.859 204.899L186.868 204.895L186.652 204.335ZM190.562 201.536L190.083 201.174L190.562 201.536ZM192.561 196.737L191.975 196.608L191.974 196.615L192.561 196.737ZM193.317 189.361L192.717 189.343L192.717 189.349L193.317 189.361ZM193.317 168.433L192.717 168.445L192.717 168.451L193.317 168.433ZM192.561 161.057L191.974 161.178L191.976 161.188L192.561 161.057ZM186.652 153.459L186.436 154.019L186.444 154.022L186.652 153.459ZM180.209 152.17L180.161 152.768L180.161 152.769L180.209 152.17ZM128.044 151.859V151.259H127.444V151.859H128.044ZM128.044 205.891H127.444V206.491H128.044V205.891ZM119.512 213H118.912V213.6H119.512V213ZM119.512 144.75V144.15H118.912V144.75H119.512ZM183.808 145.683L183.704 146.274L183.71 146.275L183.808 145.683ZM192.65 148.438L192.366 148.966L192.369 148.968L192.65 148.438ZM198.027 153.104L197.527 153.436L197.531 153.442L198.027 153.104ZM200.782 159.724L200.196 159.854L200.197 159.862L200.782 159.724ZM201.804 168.3L201.204 168.316L201.204 168.322L201.804 168.3ZM201.804 189.495L201.204 189.472L201.204 189.478L201.804 189.495ZM200.782 198.07L200.197 197.934L200.196 197.939L200.782 198.07ZM198.027 204.646L197.531 204.308L197.527 204.314L198.027 204.646ZM192.65 209.312L192.369 208.782L192.366 208.784L192.65 209.312ZM183.808 212.111L183.907 212.703L183.911 212.702L183.808 212.111ZM170.656 206.491C174.427 206.491 177.629 206.387 180.256 206.178L180.161 204.981C177.575 205.187 174.408 205.291 170.656 205.291V206.491ZM180.256 206.178C182.895 205.968 185.102 205.546 186.859 204.898L186.444 203.772C184.825 204.369 182.736 204.777 180.161 204.981L180.256 206.178ZM186.868 204.895C188.641 204.211 190.043 203.217 191.04 201.898L190.083 201.174C189.244 202.284 188.04 203.157 186.436 203.776L186.868 204.895ZM191.04 201.898C192.027 200.593 192.722 198.904 193.149 196.86L191.974 196.615C191.572 198.54 190.933 200.05 190.083 201.174L191.04 201.898ZM193.147 196.867C193.603 194.802 193.857 192.301 193.917 189.374L192.717 189.349C192.658 192.227 192.409 194.644 191.975 196.608L193.147 196.867ZM193.916 189.38C194.006 186.439 194.05 182.937 194.05 178.875H192.85C192.85 182.929 192.806 186.418 192.717 189.343L193.916 189.38ZM194.05 178.875C194.05 174.813 194.006 171.326 193.916 168.415L192.717 168.451C192.806 171.346 192.85 174.821 192.85 178.875H194.05ZM193.917 168.421C193.857 165.464 193.603 162.963 193.147 160.926L191.976 161.188C192.409 163.121 192.658 165.537 192.717 168.445L193.917 168.421ZM193.149 160.936C192.722 158.863 192.028 157.158 191.04 155.852L190.083 156.576C190.932 157.699 191.571 159.222 191.974 161.178L193.149 160.936ZM191.04 155.852C190.041 154.53 188.635 153.55 186.859 152.896L186.444 154.022C188.045 154.612 189.246 155.468 190.083 156.576L191.04 155.852ZM186.868 152.899C185.107 152.22 182.898 151.782 180.256 151.572L180.161 152.769C182.734 152.973 184.819 153.395 186.436 154.019L186.868 152.899ZM180.257 151.572C177.658 151.363 174.457 151.259 170.656 151.259V152.459C174.438 152.459 177.605 152.563 180.161 152.768L180.257 151.572ZM170.656 151.259H128.044V152.459H170.656V151.259ZM127.444 151.859V205.891H128.644V151.859H127.444ZM128.044 206.491H170.656V205.291H128.044V206.491ZM120.112 213V144.75H118.912V213H120.112ZM119.512 145.35H170.656V144.15H119.512V145.35ZM170.656 145.35C175.848 145.35 180.195 145.66 183.704 146.274L183.911 145.092C180.311 144.462 175.89 144.15 170.656 144.15V145.35ZM183.71 146.275C187.252 146.861 190.131 147.763 192.366 148.966L192.935 147.91C190.548 146.625 187.532 145.691 183.906 145.091L183.71 146.275ZM192.369 148.968C194.637 150.174 196.348 151.667 197.527 153.436L198.526 152.771C197.217 150.808 195.344 149.191 192.932 147.908L192.369 148.968ZM197.531 153.442C198.756 155.236 199.647 157.369 200.196 159.854L201.367 159.595C200.791 156.984 199.845 154.704 198.522 152.765L197.531 153.442ZM200.197 159.862C200.779 162.332 201.116 165.149 201.204 168.316L202.403 168.283C202.314 165.052 201.969 162.152 201.366 159.587L200.197 159.862ZM201.204 168.322C201.322 171.483 201.381 175 201.381 178.875H202.581C202.581 174.989 202.522 171.456 202.403 168.277L201.204 168.322ZM201.381 178.875C201.381 182.75 201.322 186.282 201.204 189.472L202.403 189.517C202.522 186.309 202.581 182.761 202.581 178.875H201.381ZM201.204 189.478C201.116 192.615 200.779 195.433 200.197 197.934L201.366 198.206C201.969 195.612 202.314 192.713 202.403 189.511L201.204 189.478ZM200.196 197.939C199.647 200.394 198.756 202.513 197.531 204.308L198.522 204.985C199.844 203.047 200.79 200.783 201.367 198.201L200.196 197.939ZM197.527 204.314C196.348 206.083 194.637 207.576 192.369 208.782L192.932 209.842C195.344 208.559 197.217 206.942 198.526 204.979L197.527 204.314ZM192.366 208.784C190.129 209.988 187.249 210.905 183.705 211.52L183.911 212.702C187.536 212.073 190.55 211.124 192.935 209.84L192.366 208.784ZM183.709 211.519C180.198 212.105 175.849 212.4 170.656 212.4V213.6C175.889 213.6 180.308 213.303 183.907 212.703L183.709 211.519ZM170.656 212.4H119.512V213.6H170.656V212.4ZM275.146 176.92L274.954 177.488L274.962 177.491L275.146 176.92ZM283.81 183.585L283.276 183.858L283.278 183.862L283.81 183.585ZM285.232 188.384L284.636 188.453L284.637 188.463L285.232 188.384ZM285.01 200.025L284.423 199.902L284.421 199.91L285.01 200.025ZM263.859 213.933L263.79 213.337L263.784 213.338L263.859 213.933ZM220.626 212.645L220.456 213.22L220.463 213.222L220.626 212.645ZM214.894 210.112L214.554 210.607L214.561 210.611L214.894 210.112ZM211.25 206.513L210.744 206.836L210.748 206.842L210.753 206.848L211.25 206.513ZM209.384 201.803L208.796 201.92L208.796 201.922L209.384 201.803ZM208.851 195.938V195.337H208.251V195.938H208.851ZM217.382 195.938H217.982V195.337H217.382V195.938ZM218.537 202.203L219.072 201.93L218.537 202.203ZM222.358 205.624L222.12 206.175L222.128 206.178L222.358 205.624ZM229.335 207.046L229.291 207.644L229.298 207.645L229.335 207.046ZM275.857 200.292L276.397 200.553L276.399 200.549L275.857 200.292ZM276.212 188.162L275.643 188.351L275.646 188.361L276.212 188.162ZM272.968 184.34L272.662 184.857L272.667 184.859L272.968 184.34ZM266.17 182.341L266.086 182.935L266.092 182.936L266.17 182.341ZM229.512 181.141L229.45 181.738L229.451 181.738L229.512 181.141ZM220.181 179.497L220.012 180.073L220.018 180.074L220.181 179.497ZM214.138 176.787L213.786 177.272L213.792 177.277L214.138 176.787ZM210.672 173.054L210.147 173.345L210.152 173.353L210.672 173.054ZM209.162 168.433L208.567 168.515L208.568 168.516L209.162 168.433ZM209.339 157.103L208.753 156.975L208.751 156.985L209.339 157.103ZM211.428 152.304L211.917 152.651L211.921 152.646L211.428 152.304ZM215.56 148.438L215.235 147.934L215.56 148.438ZM222.27 145.639L222.427 146.218L222.431 146.217L222.27 145.639ZM265.504 143.817L265.443 144.414L265.448 144.414L265.504 143.817ZM273.768 145.283L273.598 145.859L273.605 145.861L273.768 145.283ZM279.5 147.771L279.167 148.271L279.179 148.278L279.5 147.771ZM283.144 151.326L282.638 151.649L282.642 151.655L282.646 151.661L283.144 151.326ZM285.587 161.812V162.413H286.187V161.812H285.587ZM277.056 161.812H276.456V162.413H277.056V161.812ZM272.08 152.17L271.841 152.721L271.849 152.724L272.08 152.17ZM265.059 150.749L265.016 151.347L265.023 151.347L265.059 150.749ZM231.734 151.06L231.797 151.656L231.801 151.656L231.734 151.06ZM218.582 156.88L218.049 156.604L218.582 156.88ZM218.893 169.899L218.401 170.243L218.408 170.253L218.415 170.262L218.893 169.899ZM233.111 174.387L233.072 174.986L233.079 174.986L233.111 174.387ZM254.662 175.209C259.327 175.209 263.317 175.401 266.635 175.783L266.772 174.591C263.395 174.202 259.357 174.009 254.662 174.009V175.209ZM266.635 175.783C269.955 176.165 272.725 176.736 274.954 177.488L275.338 176.351C273.004 175.564 270.146 174.979 266.772 174.591L266.635 175.783ZM274.962 177.491C277.226 178.217 278.987 179.119 280.273 180.182L281.037 179.257C279.599 178.068 277.687 177.104 275.329 176.349L274.962 177.491ZM280.273 180.182C281.578 181.26 282.575 182.485 283.276 183.858L284.345 183.312C283.564 181.782 282.458 180.43 281.037 179.257L280.273 180.182ZM283.278 183.862C283.981 185.212 284.436 186.74 284.636 188.453L285.828 188.314C285.613 186.473 285.12 184.802 284.342 183.308L283.278 183.862ZM284.637 188.463C284.87 190.21 284.987 192.109 284.987 194.16H286.187C286.187 192.064 286.068 190.112 285.827 188.304L284.637 188.463ZM284.987 194.16C284.987 196.197 284.798 198.11 284.423 199.902L285.597 200.149C285.992 198.267 286.187 196.271 286.187 194.16H284.987ZM284.421 199.91C284.079 201.647 283.454 203.237 282.547 204.683L283.563 205.321C284.551 203.746 285.229 202.018 285.599 200.141L284.421 199.91ZM282.547 204.683C281.644 206.121 280.411 207.415 278.836 208.56L279.542 209.531C281.225 208.307 282.569 206.904 283.563 205.321L282.547 204.683ZM278.836 208.56C277.27 209.699 275.257 210.681 272.781 211.497L273.156 212.637C275.716 211.794 277.849 210.762 279.542 209.531L278.836 208.56ZM272.781 211.497C270.312 212.31 267.317 212.926 263.79 213.337L263.929 214.529C267.511 214.111 270.589 213.482 273.156 212.637L272.781 211.497ZM263.784 213.338C260.291 213.778 256.185 214 251.462 214V215.2C256.219 215.2 260.378 214.977 263.935 214.528L263.784 213.338ZM251.462 214H240.087V215.2H251.462V214ZM240.087 214C235.836 214 232.125 213.837 228.951 213.514L228.829 214.708C232.054 215.036 235.808 215.2 240.087 215.2V214ZM228.951 213.514C225.776 213.19 223.057 212.707 220.788 212.067L220.463 213.222C222.816 213.886 225.606 214.379 228.829 214.708L228.951 213.514ZM220.795 212.069C218.525 211.4 216.674 210.577 215.226 209.613L214.561 210.611C216.135 211.661 218.105 212.527 220.456 213.22L220.795 212.069ZM215.233 209.617C213.778 208.618 212.619 207.471 211.748 206.177L210.753 206.848C211.718 208.28 212.988 209.532 214.554 210.607L215.233 209.617ZM211.756 206.19C210.91 204.865 210.314 203.364 209.972 201.683L208.796 201.922C209.165 203.736 209.813 205.376 210.744 206.836L211.756 206.19ZM209.972 201.685C209.626 199.953 209.451 198.038 209.451 195.938H208.251C208.251 198.103 208.431 200.098 208.796 201.92L209.972 201.685ZM208.851 196.538H217.382V195.337H208.851V196.538ZM216.782 195.938C216.782 198.649 217.172 200.845 218.003 202.475L219.072 201.93C218.362 200.539 217.982 198.558 217.982 195.938H216.782ZM218.003 202.475C218.845 204.128 220.234 205.357 222.12 206.175L222.597 205.073C220.928 204.35 219.77 203.299 219.072 201.93L218.003 202.475ZM222.128 206.178C223.987 206.952 226.382 207.434 229.291 207.644L229.378 206.447C226.54 206.243 224.285 205.777 222.589 205.07L222.128 206.178ZM229.298 207.645C232.217 207.824 235.815 207.913 240.087 207.913V206.712C235.829 206.712 232.258 206.624 229.371 206.447L229.298 207.645ZM240.087 207.913H251.462V206.712H240.087V207.913ZM251.462 207.913C256.455 207.913 260.618 207.675 263.945 207.195L263.774 206.008C260.524 206.476 256.423 206.712 251.462 206.712V207.913ZM263.945 207.195C267.271 206.716 269.967 205.947 272.005 204.866L271.443 203.805C269.572 204.798 267.024 205.539 263.774 206.008L263.945 207.195ZM272.005 204.866C274.05 203.781 275.531 202.348 276.397 200.553L275.316 200.031C274.582 201.553 273.309 202.816 271.443 203.805L272.005 204.866ZM276.399 200.549C277.246 198.761 277.656 196.624 277.656 194.16H276.456C276.456 196.495 276.067 198.446 275.314 200.035L276.399 200.549ZM277.656 194.16C277.656 191.719 277.371 189.647 276.778 187.962L275.646 188.361C276.179 189.876 276.456 191.803 276.456 194.16H277.656ZM276.781 187.972C276.196 186.217 275.01 184.834 273.27 183.822L272.667 184.859C274.186 185.743 275.161 186.907 275.643 188.351L276.781 187.972ZM273.274 183.824C271.576 182.818 269.219 182.136 266.248 181.746L266.092 182.936C268.986 183.316 271.162 183.967 272.662 184.857L273.274 183.824ZM266.254 181.747C263.282 181.326 259.415 181.119 254.662 181.119V182.319C259.388 182.319 263.193 182.526 266.086 182.935L266.254 181.747ZM254.662 181.119H242.931V182.319H254.662V181.119ZM242.931 181.119C237.731 181.119 233.28 180.927 229.574 180.544L229.451 181.738C233.21 182.126 237.704 182.319 242.931 182.319V181.119ZM229.574 180.544C225.893 180.161 222.819 179.618 220.344 178.92L220.018 180.074C222.58 180.798 225.726 181.351 229.45 181.738L229.574 180.544ZM220.351 178.921C217.872 178.192 215.924 177.313 214.484 176.296L213.792 177.277C215.374 178.393 217.455 179.321 220.012 180.073L220.351 178.921ZM214.491 176.301C213.037 175.247 211.944 174.063 211.193 172.755L210.152 173.353C211 174.83 212.218 176.135 213.786 177.272L214.491 176.301ZM211.197 172.764C210.465 171.44 209.983 169.971 209.756 168.35L208.568 168.516C208.814 170.272 209.339 171.884 210.147 173.345L211.197 172.764ZM209.756 168.351C209.523 166.664 209.406 164.84 209.406 162.879H208.206C208.206 164.887 208.326 166.766 208.567 168.515L209.756 168.351ZM209.406 162.879C209.406 160.839 209.581 158.954 209.928 157.22L208.751 156.985C208.387 158.806 208.206 160.771 208.206 162.879H209.406ZM209.926 157.23C210.295 155.528 210.959 154.004 211.917 152.651L210.938 151.957C209.882 153.448 209.155 155.123 208.753 156.975L209.926 157.23ZM211.921 152.646C212.876 151.269 214.192 150.033 215.885 148.942L215.235 147.934C213.433 149.094 211.994 150.435 210.935 151.962L211.921 152.646ZM215.885 148.942C217.566 147.86 219.741 146.947 222.427 146.218L222.112 145.06C219.347 145.811 217.049 146.765 215.235 147.934L215.885 148.942ZM222.431 146.217C225.143 145.458 228.41 144.886 232.238 144.503L232.119 143.309C228.244 143.696 224.906 144.279 222.108 145.061L222.431 146.217ZM232.238 144.503C236.064 144.12 240.575 143.928 245.775 143.928V142.728C240.548 142.728 235.995 142.921 232.119 143.309L232.238 144.503ZM245.775 143.928H254.306V142.728H245.775V143.928ZM254.306 143.928C258.558 143.928 262.269 144.091 265.443 144.414L265.564 143.22C262.34 142.892 258.586 142.728 254.306 142.728V143.928ZM265.448 144.414C268.621 144.708 271.335 145.191 273.598 145.859L273.938 144.708C271.58 144.012 268.785 143.518 265.559 143.219L265.448 144.414ZM273.605 145.861C275.874 146.5 277.722 147.308 279.167 148.271L279.833 147.272C278.256 146.221 276.284 145.369 273.931 144.706L273.605 145.861ZM279.179 148.278C280.653 149.214 281.801 150.338 282.638 151.649L283.649 151.003C282.709 149.53 281.428 148.285 279.822 147.265L279.179 148.278ZM282.646 151.661C283.517 152.953 284.125 154.434 284.466 156.111L285.642 155.872C285.272 154.054 284.607 152.424 283.641 150.991L282.646 151.661ZM284.466 156.111C284.812 157.813 284.987 159.712 284.987 161.812H286.187C286.187 159.647 286.007 157.666 285.642 155.872L284.466 156.111ZM285.587 161.212H277.056V162.413H285.587V161.212ZM277.656 161.812C277.656 159.101 277.266 156.905 276.436 155.275L275.366 155.82C276.076 157.211 276.456 159.192 276.456 161.812H277.656ZM276.436 155.275C275.592 153.62 274.2 152.404 272.31 151.617L271.849 152.724C273.514 153.418 274.67 154.453 275.366 155.82L276.436 155.275ZM272.318 151.62C270.453 150.812 268.037 150.33 265.096 150.15L265.023 151.347C267.887 151.523 270.151 151.989 271.841 152.721L272.318 151.62ZM265.102 150.15C262.18 149.941 258.58 149.837 254.306 149.837V151.038C258.564 151.038 262.133 151.141 265.016 151.347L265.102 150.15ZM254.306 149.837H245.775V151.038H254.306V149.837ZM245.775 149.837C240.076 149.837 235.371 150.045 231.667 150.463L231.801 151.656C235.444 151.245 240.099 151.038 245.775 151.038V149.837ZM231.671 150.463C227.968 150.851 224.995 151.527 222.781 152.511L223.269 153.607C225.321 152.695 228.154 152.038 231.797 151.656L231.671 150.463ZM222.781 152.511C220.561 153.497 218.958 154.852 218.049 156.604L219.114 157.157C219.865 155.71 221.223 154.517 223.269 153.607L222.781 152.511ZM218.049 156.604C217.163 158.313 216.737 160.414 216.737 162.879H217.937C217.937 160.545 218.341 158.647 219.114 157.157L218.049 156.604ZM216.737 162.879C216.737 164.387 216.843 165.742 217.058 166.939L218.239 166.727C218.039 165.615 217.937 164.333 217.937 162.879H216.737ZM217.058 166.939C217.279 168.173 217.725 169.278 218.401 170.243L219.384 169.555C218.816 168.744 218.432 167.804 218.239 166.727L217.058 166.939ZM218.415 170.262C219.131 171.206 220.11 171.985 221.329 172.611L221.877 171.543C220.786 170.983 219.958 170.311 219.371 169.537L218.415 170.262ZM221.329 172.611C222.551 173.237 224.134 173.74 226.06 174.131L226.299 172.955C224.434 172.576 222.966 172.101 221.877 171.543L221.329 172.611ZM226.06 174.131C227.991 174.523 230.33 174.807 233.072 174.986L233.15 173.788C230.442 173.612 228.16 173.333 226.299 172.955L226.06 174.131ZM233.079 174.986C235.848 175.135 239.132 175.209 242.931 175.209V174.009C239.147 174.009 235.885 173.935 233.144 173.788L233.079 174.986ZM242.931 175.209H254.662V174.009H242.931V175.209Z" fill="black"/>
</svg>
