<svg width="268" height="266" viewBox="0 0 268 266" fill="none" xmlns="http://www.w3.org/2000/svg">
<circle cx="134" cy="132" r="125" fill="white"/>
<g filter="url(#filter0_d_205_27)">
<path d="M135.214 14.4958L137.173 58.2949C137.247 59.9634 134.698 60.8367 129.523 60.9147C127.469 60.9457 126.405 60.1269 126.33 58.4584L124.418 15.6832C124.317 13.4458 126.702 12.2904 131.572 12.217C133.931 12.1814 135.145 12.941 135.214 14.4958Z" fill="#FF0000"/>
<path d="M169.13 20.1592L158.084 62.4201C157.663 64.03 154.955 64.127 149.959 62.711C147.975 62.1488 147.193 61.0627 147.614 59.4528L158.401 18.1798C158.966 16.0211 161.599 15.608 166.301 16.9407C168.579 17.5862 169.522 18.6591 169.13 20.1592Z" fill="#A36200"/>
<path d="M209.028 42.4317L182.75 77.2017C181.749 78.5262 179.172 77.6212 175.018 74.4865C173.369 73.2419 173.045 71.9573 174.046 70.6327L199.709 36.6755C201.052 34.8994 203.678 35.4865 207.587 38.4367C209.481 39.8658 209.961 41.1974 209.028 42.4317Z" fill="#1D9200"/>
<path d="M238.163 77.5879L200.542 99.7459C199.109 100.59 197.026 98.8026 194.294 94.3838C193.209 92.6293 193.383 91.33 194.816 90.4859L231.557 68.8459C233.479 67.714 235.725 69.2275 238.297 73.3864C239.543 75.4008 239.498 76.8013 238.163 77.5879Z" fill="#C7212F"/>
<path d="M251.347 120.748L207.955 127.179C206.302 127.424 205.019 125.002 204.105 119.911C203.742 117.89 204.387 116.756 206.04 116.511L248.418 110.231C250.635 109.902 252.173 112.134 253.033 116.925C253.45 119.246 252.888 120.52 251.347 120.748Z" fill="#EE402D"/>
<path d="M248.52 165.056L205.595 155.024C203.96 154.642 203.671 151.933 204.729 146.896C205.149 144.897 206.177 144.088 207.812 144.47L249.733 154.268C251.926 154.78 252.525 157.406 251.529 162.146C251.047 164.442 250.044 165.412 248.52 165.056Z" fill="#28BFE6"/>
<path d="M229.231 204.657L192.765 179.694C191.376 178.743 192.126 176.147 195.016 171.906C196.164 170.222 197.432 169.855 198.821 170.806L234.434 195.186C236.297 196.461 235.869 199.095 233.149 203.086C231.831 205.02 230.525 205.544 229.231 204.657Z" fill="#FBC412"/>
<path d="M196.269 233.86L171.332 197.439C170.382 196.051 172.055 193.947 176.351 191.127C178.057 190.007 179.384 190.141 180.334 191.528L204.688 227.099C205.962 228.959 204.578 231.217 200.535 233.871C198.576 235.157 197.154 235.153 196.269 233.86Z" fill="#A31D44"/>
<path d="M154.376 248.503L144.566 205.659C144.193 204.027 146.538 202.711 151.602 201.712C153.613 201.315 154.805 201.932 155.179 203.565L164.759 245.407C165.26 247.596 163.127 249.16 158.361 250.101C156.053 250.556 154.724 250.024 154.376 248.503Z" fill="#F26A2E"/>
<path d="M109.384 247.496L116.286 204.317C116.549 202.672 119.231 202.321 124.332 203.265C126.357 203.639 127.239 204.649 126.976 206.294L120.235 248.464C119.883 250.67 117.306 251.328 112.504 250.44C110.179 250.01 109.139 249.029 109.384 247.496Z" fill="#DF1A83"/>
<path d="M67.6439 229.018L90.3934 191.834C91.26 190.417 93.9055 191.078 98.3299 193.815C100.087 194.902 100.532 196.154 99.6651 197.571L77.4474 233.886C76.2853 235.786 73.6222 235.447 69.4581 232.87C67.4411 231.622 66.8363 230.338 67.6439 229.018Z" fill="#F89D2A"/>
<path d="M35.3533 196.679L70.6111 170.986C71.9542 170.007 74.1925 171.593 77.3258 175.742C78.5699 177.389 78.5204 178.702 77.1772 179.681L42.7436 204.773C40.9426 206.085 38.5675 204.789 35.6185 200.884C34.1901 198.992 34.1017 197.591 35.3533 196.679Z" fill="#BF8D2C"/>
<path d="M18.1246 154.843L60.65 144.317C62.27 143.916 63.7767 146.21 65.1701 151.198C65.7234 153.178 65.19 154.369 63.57 154.77L22.0387 165.049C19.8664 165.587 18.1245 163.509 16.8131 158.814C16.1778 156.54 16.615 155.217 18.1246 154.843Z" fill="#407F46"/>
<path d="M16.6753 110.338L60.3018 116.314C61.9637 116.541 62.5117 119.216 61.9456 124.336C61.7208 126.37 60.7774 127.272 59.1155 127.045L16.5089 121.208C14.2803 120.903 13.4325 118.341 13.9652 113.521C14.2233 111.187 15.1267 110.126 16.6753 110.338Z" fill="#1F97D4"/>
<path d="M32.022 68.9881L70.6236 90.4746C72.0941 91.2932 71.5987 93.9551 69.1374 98.4605C68.1601 100.249 66.9361 100.735 65.4656 99.916L27.7663 78.9318C25.7945 77.8342 25.9668 75.1653 28.2834 70.9249C29.4055 68.871 30.6517 68.2254 32.022 68.9881Z" fill="#136A9F"/>
<path d="M61.9442 36.723L90.1673 70.6982C91.2425 71.9925 89.7813 74.2513 85.7837 77.4746C84.1964 78.7545 82.8651 78.7473 81.79 77.453L54.2266 44.2719C52.7849 42.5364 53.9453 40.1518 57.7077 37.1181C59.5302 35.6486 60.9423 35.5169 61.9442 36.723Z" fill="#136A9F"/>
<path d="M102.131 18.1568L115.959 59.9359C116.486 61.5275 114.28 63.0618 109.341 64.5389C107.38 65.1254 106.136 64.6228 105.609 63.0312L92.1045 22.2287C91.3982 20.0946 93.3693 18.3324 98.0177 16.9422C100.269 16.2689 101.641 16.6737 102.131 18.1568Z" fill="#14496B"/>
</g>
<path d="M85.2096 130.655C85.2096 129.172 85.4895 127.422 86.0494 125.406C86.6093 123.363 87.4352 121.263 88.527 119.107C89.6188 116.924 90.9485 114.768 92.5162 112.641C94.1119 110.485 95.9316 108.567 97.9752 106.888C100.019 105.208 102.272 103.85 104.736 102.814C107.227 101.779 109.915 101.261 112.798 101.261C114.114 101.261 115.43 101.373 116.746 101.597C118.089 101.821 119.363 102.129 120.567 102.521C121.799 102.884 122.947 103.332 124.01 103.864C125.074 104.368 125.998 104.914 126.782 105.502C127.37 105.95 127.958 106.426 128.546 106.93C129.133 107.406 129.665 107.951 130.141 108.567C130.617 109.155 131.009 109.841 131.317 110.625C131.625 111.381 131.779 112.249 131.779 113.229C131.779 114.04 131.639 114.684 131.359 115.16C131.107 115.636 130.827 116.014 130.519 116.294C130.155 116.602 129.749 116.84 129.301 117.008C128.601 117.008 128 116.798 127.496 116.378C126.992 115.958 126.516 115.482 126.068 114.95C125.648 114.39 125.228 113.83 124.808 113.271C124.388 112.711 123.926 112.305 123.422 112.053C121.715 110.681 119.965 109.757 118.173 109.281C116.382 108.805 114.492 108.567 112.504 108.567C110.909 108.567 109.313 108.917 107.717 109.617C106.122 110.317 104.582 111.255 103.098 112.431C101.643 113.606 100.285 114.992 99.025 116.588C97.7652 118.156 96.6594 119.821 95.7076 121.585C94.7838 123.349 94.0559 125.154 93.524 127.002C92.9921 128.85 92.7262 130.641 92.7262 132.377C92.7262 135.904 93.2441 138.914 94.2799 141.405C95.3157 143.869 96.7434 145.898 98.5631 147.494C100.411 149.062 102.58 150.21 105.072 150.938C107.563 151.665 110.279 152.029 113.218 152.029C115.878 152.029 118.019 151.847 119.643 151.483C121.295 151.119 122.555 150.574 123.422 149.846C124.318 149.118 124.906 148.222 125.186 147.158C125.494 146.066 125.648 144.793 125.648 143.337C125.648 143.001 125.634 142.539 125.606 141.951C125.606 141.363 125.592 140.747 125.564 140.104C125.564 139.432 125.55 138.774 125.522 138.13C125.522 137.458 125.522 136.898 125.522 136.45C124.178 136.674 122.779 136.8 121.323 136.828C119.895 136.856 118.551 136.87 117.292 136.87C116.648 136.87 115.976 136.786 115.276 136.618C114.576 136.422 113.932 136.142 113.344 135.778C112.784 135.414 112.323 134.966 111.959 134.435C111.595 133.903 111.413 133.287 111.413 132.587C111.413 131.831 111.553 131.229 111.833 130.781C112.141 130.305 112.532 129.927 113.008 129.647C113.512 129.368 114.086 129.186 114.73 129.102C115.374 128.99 116.06 128.934 116.788 128.934C117.348 128.934 117.963 128.962 118.635 129.018C119.335 129.046 119.993 129.088 120.609 129.144C121.337 129.2 122.051 129.256 122.751 129.312C123.338 129.312 123.982 129.256 124.682 129.144C125.41 129.032 126.138 128.92 126.866 128.808C127.594 128.668 128.308 128.542 129.007 128.43C129.735 128.318 130.421 128.262 131.065 128.262C131.625 128.262 132.157 128.388 132.661 128.64C133.165 128.892 133.599 129.228 133.963 129.647C134.354 130.039 134.662 130.487 134.886 130.991C135.11 131.467 135.222 131.929 135.222 132.377C135.222 133.301 135.026 134.043 134.634 134.603C134.242 135.162 133.725 135.624 133.081 135.988C133.053 137.752 132.997 139.6 132.913 141.531C132.829 143.435 132.843 145.241 132.955 146.948C133.039 148.04 133.109 148.922 133.165 149.594C133.221 150.266 133.263 150.812 133.291 151.231C133.347 151.651 133.389 151.973 133.417 152.197C133.445 152.393 133.459 152.561 133.459 152.701C133.459 153.765 133.389 154.619 133.249 155.263C133.109 155.907 132.913 156.41 132.661 156.774C132.409 157.11 132.101 157.334 131.737 157.446C131.373 157.558 130.967 157.614 130.519 157.614C129.763 157.614 129.147 157.544 128.671 157.404C128.196 157.264 127.79 157.082 127.454 156.858C127.146 156.606 126.894 156.354 126.698 156.103C126.53 155.823 126.376 155.557 126.236 155.305C125.424 155.753 124.486 156.201 123.422 156.648C122.387 157.096 121.253 157.502 120.021 157.866C118.789 158.202 117.488 158.482 116.116 158.706C114.772 158.902 113.386 159 111.959 159C107.451 159 103.518 158.384 100.159 157.152C96.7994 155.921 94.0139 154.115 91.8023 151.735C89.5908 149.328 87.9391 146.36 86.8473 142.833C85.7555 139.306 85.2096 135.246 85.2096 130.655ZM141.42 155.305C141.42 154.997 141.476 154.563 141.588 154.003C141.7 153.415 141.868 152.855 142.092 152.323C142.316 151.763 142.596 151.287 142.932 150.896C143.296 150.476 143.73 150.266 144.234 150.266C145.046 150.266 145.718 150.308 146.249 150.392C146.781 150.476 147.257 150.574 147.677 150.686C148.097 150.798 148.489 150.924 148.853 151.063C149.245 151.203 149.679 151.329 150.155 151.441C150.631 151.553 151.204 151.651 151.876 151.735C152.548 151.819 153.388 151.861 154.396 151.861C155.46 151.861 156.677 151.833 158.049 151.777C159.449 151.693 160.891 151.539 162.374 151.315C163.858 151.063 165.314 150.7 166.742 150.224C168.169 149.72 169.443 149.034 170.563 148.166C171.683 147.298 172.579 146.234 173.25 144.975C173.95 143.687 174.3 142.119 174.3 140.271C174.3 139.18 174.02 138.284 173.46 137.584C172.9 136.856 172.145 136.282 171.193 135.862C170.241 135.442 169.149 135.148 167.917 134.98C166.686 134.785 165.398 134.687 164.054 134.687C163.41 134.687 162.78 134.799 162.164 135.022C161.577 135.218 160.961 135.442 160.317 135.694C159.701 135.918 159.043 136.142 158.343 136.366C157.643 136.562 156.901 136.66 156.118 136.66C154.634 136.66 153.486 136.394 152.674 135.862C151.89 135.302 151.498 134.477 151.498 133.385C151.498 132.153 151.834 131.117 152.506 130.277C153.206 129.438 154.102 128.724 155.194 128.136C156.286 127.548 157.489 127.072 158.805 126.708C160.121 126.344 161.409 126.008 162.668 125.7C163.956 124.86 165.314 123.909 166.742 122.845C168.169 121.753 169.485 120.563 170.689 119.275C171.893 117.96 172.886 116.574 173.67 115.118C174.454 113.634 174.846 112.095 174.846 110.499C174.846 110.247 174.636 110.037 174.216 109.869C173.796 109.701 173.292 109.575 172.704 109.491C172.145 109.407 171.557 109.351 170.941 109.323C170.353 109.267 169.877 109.239 169.513 109.239C168.617 109.239 167.651 109.323 166.616 109.491C165.608 109.631 164.586 109.827 163.55 110.079C162.514 110.331 161.521 110.625 160.569 110.961C159.645 111.269 158.819 111.605 158.091 111.969C157.531 112.221 157.069 112.459 156.705 112.683C156.37 112.907 156.062 113.103 155.782 113.271C155.502 113.438 155.236 113.578 154.984 113.69C154.732 113.774 154.424 113.816 154.06 113.816C153.696 113.816 153.29 113.746 152.842 113.606C152.422 113.466 152.016 113.285 151.624 113.061C151.26 112.809 150.953 112.529 150.701 112.221C150.449 111.885 150.323 111.521 150.323 111.129C150.323 110.009 150.701 109.001 151.456 108.105C152.24 107.21 153.248 106.426 154.48 105.754C155.712 105.082 157.097 104.508 158.637 104.032C160.177 103.528 161.717 103.122 163.256 102.814C164.796 102.507 166.252 102.283 167.623 102.143C168.995 102.003 170.143 101.933 171.067 101.933C174.874 101.933 177.8 102.702 179.843 104.242C181.887 105.782 182.909 108.217 182.909 111.549C182.909 112.333 182.685 113.326 182.237 114.53C181.789 115.706 181.103 117.022 180.179 118.478C179.255 119.905 178.093 121.431 176.694 123.055C175.322 124.678 173.698 126.316 171.823 127.968C173.138 128.388 174.426 128.948 175.686 129.647C176.974 130.319 178.107 131.117 179.087 132.041C180.095 132.965 180.907 134.001 181.523 135.148C182.139 136.296 182.447 137.514 182.447 138.802C182.447 141.937 182.069 144.625 181.313 146.864C180.557 149.104 179.451 150.993 177.996 152.533C176.54 154.045 174.734 155.249 172.579 156.145C170.451 157.04 167.987 157.726 165.188 158.202C162.416 158.65 159.337 158.944 155.95 159.084C152.562 159.224 148.895 159.294 144.948 159.294C144.192 159.294 143.576 159.168 143.1 158.916C142.652 158.636 142.302 158.3 142.05 157.908C141.798 157.516 141.63 157.082 141.546 156.606C141.462 156.131 141.42 155.697 141.42 155.305Z" fill="black"/>
<defs>
<filter id="filter0_d_205_27" x="1.16608" y="2.16406" width="264.492" height="263.608" filterUnits="userSpaceOnUse" color-interpolation-filters="sRGB">
<feFlood flood-opacity="0" result="BackgroundImageFix"/>
<feColorMatrix in="SourceAlpha" type="matrix" values="0 0 0 0 0 0 0 0 0 0 0 0 0 0 0 0 0 0 127 0" result="hardAlpha"/>
<feOffset dy="2"/>
<feGaussianBlur stdDeviation="6"/>
<feComposite in2="hardAlpha" operator="out"/>
<feColorMatrix type="matrix" values="0 0 0 0 1 0 0 0 0 1 0 0 0 0 1 0 0 0 0.51 0"/>
<feBlend mode="normal" in2="BackgroundImageFix" result="effect1_dropShadow_205_27"/>
<feBlend mode="normal" in="SourceGraphic" in2="effect1_dropShadow_205_27" result="shape"/>
</filter>
</defs>
</svg>
